# xmcd
#
# Track frame offsets: 
#        150
#        17042
#        33485
#        50325
#        66012
#        79582
#        97492
#        112142
#        127167
#        144785
#        161147
#        180917
#        198237
#        214145
#
# Disc length: 3058 seconds
#
# Revision: 0
# Processed by: cddbd v1.5.2PL0 Copyright (c) Steve Scherf et al.
# Submitted via: ExactAudioCopy v1.0b1
#
DISCID=c60bf00e
DTITLE=鄧麗君 - 懷念精選專輯DISC1-テレサテンベストアルバム
DYEAR=1900
DGENRE=
TTITLE0=空港
TTITLE1=香港の夜
TTITLE2=雪化粧
TTITLE3=1-04 冬のフェリーポート
TTITLE4=雨夜花
TTITLE5=台北の夜
TTITLE6=夜来香 (日本語バージョン)
TTITLE7=何日君再来
TTITLE8=ふるさとはどこですか
TTITLE9=あなたと共にいきてゆ
TTITLE10=カカシカの夢
TTITLE11=夜の乗客
TTITLE12=グッドバイ・マイ・ラブ
TTITLE13=なみだ戀
EXTD=
EXTT0=
EXTT1=
EXTT2=
EXTT3=
EXTT4=
EXTT5=
EXTT6=
EXTT7=
EXTT8=
EXTT9=
EXTT10=
EXTT11=
EXTT12=
EXTT13=
PLAYORDER=
